HIERARCHY
ROOT root
{
	OFFSET	0	13.1	24.9
	CHANNELS 6  Xposition Yposition Zposition Xrotation Yrotation Zrotation
	JOINT spine_1
	{
		OFFSET	0	9.99999	0
		CHANNELS 3  Xrotation Yrotation Zrotation
		JOINT spine_2
		{
			OFFSET	0	112	-10
			CHANNELS 3  Xrotation Yrotation Zrotation
			JOINT spine_3
			{
				OFFSET	0	206.5	19.3
				CHANNELS 3  Xrotation Yrotation Zrotation
				JOINT spine_4
				{
					OFFSET	0	110.4	14.6
					CHANNELS 3  Xrotation Yrotation Zrotation
					JOINT neck_1
					{
						OFFSET	0	71.8	-50.3
						CHANNELS 3  Xrotation Yrotation Zrotation
						JOINT neck_2
						{
							OFFSET	0	86.2	-25.8
							CHANNELS 3  Xrotation Yrotation Zrotation
							JOINT head_ee
							{
								OFFSET	0	179.8	-8.7
								CHANNELS 3  Xrotation Yrotation Zrotation
								End Site
								{
									OFFSET	1	0	0
								}
							}
						}
					}
					JOINT left_clavicle
					{
						OFFSET	-43.2	22.4	-70.8
						CHANNELS 3  Xrotation Yrotation Zrotation
						JOINT left_shoulder
						{
							OFFSET	-93.9	-5.79999	48.7
							CHANNELS 3  Xrotation Yrotation Zrotation
							JOINT left_elbow
							{
								OFFSET	-291.4	-30.8	15.2
								CHANNELS 3  Xrotation Yrotation Zrotation
								JOINT left_lowarm_twist
								{
									OFFSET	-110.7	-3.89999	13.6
									CHANNELS 3  Xrotation Yrotation Zrotation
									JOINT left_hand
									{
										OFFSET	-110.7	-3.89999	13.6
										CHANNELS 3  Xrotation Yrotation Zrotation
										JOINT left_ee
										{
											OFFSET	-80.8	-5.10001	12.1
											CHANNELS 3  Xrotation Yrotation Zrotation
											End Site
											{
												OFFSET	1	0	0
											}
										}
									}
								}
							}
						}
					}
					JOINT right_clavicle
					{
						OFFSET	43.2	22.4	-70.8
						CHANNELS 3  Xrotation Yrotation Zrotation
						JOINT right_shoulder
						{
							OFFSET	93.9	-5.79999	48.7
							CHANNELS 3  Xrotation Yrotation Zrotation
							JOINT right_elbow
							{
								OFFSET	291.4	-30.8	15.2
								CHANNELS 3  Xrotation Yrotation Zrotation
								JOINT right_lowarm_twist
								{
									OFFSET	110.7	-3.89999	13.6
									CHANNELS 3  Xrotation Yrotation Zrotation
									JOINT right_hand
									{
										OFFSET	110.7	-3.89999	13.6
										CHANNELS 3  Xrotation Yrotation Zrotation
										JOINT right_ee
										{
											OFFSET	80.8	-5.10001	12.1
											CHANNELS 3  Xrotation Yrotation Zrotation
											End Site
											{
												OFFSET	1	0	0
											}
										}
									}
								}
							}
						}
					}
				}
			}
		}
	}
	JOINT left_hip
	{
		OFFSET	-82.8	-127.5	0.300001
		CHANNELS 3  Xrotation Yrotation Zrotation
		JOINT left_knee
		{
			OFFSET	-28.2	-396.7	2.2
			CHANNELS 3  Xrotation Yrotation Zrotation
			JOINT left_ankle
			{
				OFFSET	-11.7	-411.3	35.4
				CHANNELS 3  Xrotation Yrotation Zrotation
				JOINT left_toes
				{
					OFFSET	0	-60	-88.6
					CHANNELS 3  Xrotation Yrotation Zrotation
					JOINT left_foot_ee
					{
						OFFSET	-22.5	-16.5	-42.2
						CHANNELS 3  Xrotation Yrotation Zrotation
						End Site
						{
							OFFSET	1	0	0
						}
					}
				}
			}
		}
	}
	JOINT right_hip
	{
		OFFSET	82.8	-127.5	0.300001
		CHANNELS 3  Xrotation Yrotation Zrotation
		JOINT right_knee
		{
			OFFSET	28.2	-396.7	2.2
			CHANNELS 3  Xrotation Yrotation Zrotation
			JOINT right_ankle
			{
				OFFSET	11.7	-411.3	35.4
				CHANNELS 3  Xrotation Yrotation Zrotation
				JOINT right_toes
				{
					OFFSET	0	-60	-88.6
					CHANNELS 3  Xrotation Yrotation Zrotation
					JOINT right_foot_ee
					{
						OFFSET	22.5	-16.5	-42.2
						CHANNELS 3  Xrotation Yrotation Zrotation
						End Site
						{
							OFFSET	1	0	0
						}
					}
				}
			}
		}
	}
}
MOTION
Frames: 13
Frame Time: 0.02
3260.7 775.72 -429.319 165.901 -44.141 172.166 -0.665493 -0.347961 -3.37912 -0.659151 -0.13236 -3.39439 -0.647163 0.622406 -3.33953 -0.662713 0.087496 -3.39585 -15.9347 6.15907 2.65574 -16.0156 10.2715 4.64165 -0.0 0.0 -0.0 10.0103 17.6126 17.8627 -4.67478 -17.7909 60.0109 2.10097 -46.1386 0.894893 -46.6864 -3.68866 4.49848 -3.1683 23.2137 -9.01184 -0.0 0.0 -0.0 0.329559 15.9974 1.17928 -19.8312 27.635 -65.7911 0.305898 8.61683 -0.0230459 -16.2635 0.847745 -1.89193 4.06667 9.18892 -24.2445 0.0 0.0 0.0 10.5557 -29.6595 9.94125 -29.0466 0.0794026 4.40939 19.8261 30.1959 -2.94347 -13.1458 0.0 0.0 -0.0 0.0 -0.0 12.1327 20.4795 0.579477 -43.6914 0.718156 -6.50715 -18.478 22.7477 -3.25502 39.9836 -0.0 -0.0 0.0 0.0 0.0 
3268.74 775.632 -430.704 166.87 -44.0364 172.78 -0.494597 -0.296844 -3.25638 -0.488703 -0.0891437 -3.26865 -0.480098 0.627362 -3.20918 -0.49445 0.112941 -3.26792 -15.8104 6.50259 4.71811 -15.8349 9.72632 6.67923 -0.0 0.0 -0.0 9.94367 17.5366 17.7628 -4.00199 -17.8046 60.1504 2.18164 -47.2155 0.953581 -47.0076 -3.72532 4.51731 -3.10183 23.5884 -8.41367 -0.0 0.0 -0.0 0.420888 15.5087 0.930149 -20.8302 27.3686 -64.8816 0.36317 10.1988 -0.0324084 -16.0162 0.830908 -1.86513 4.15211 8.78278 -25.0721 0.0 0.0 0.0 11.0142 -25.6339 9.4386 -28.9353 0.0833733 4.39277 18.7119 29.9211 -2.78453 -12.8349 0.0 0.0 -0.0 0.0 -0.0 13.2822 19.6545 0.0433881 -43.3738 0.695237 -6.464 -19.4668 22.3792 -3.41694 40.1869 -0.0 -0.0 0.0 0.0 0.0 
3269.62 776.986 -427.209 167.842 -43.6259 173.226 -0.497392 -0.212529 -3.23721 -0.491562 -0.00621641 -3.24417 -0.487883 0.703477 -3.16706 -0.501826 0.194745 -3.23833 -16.2286 5.88438 3.64378 -16.2735 9.19921 5.49476 -0.0 0.0 -0.0 10.0214 17.5411 17.8924 -3.91439 -17.1468 59.6275 2.24912 -48.084 1.00345 -47.6176 -3.79525 4.55254 -3.41813 22.8108 -10.7088 -0.0 0.0 -0.0 0.567567 15.1718 0.580992 -19.1362 27.1496 -65.4359 0.277918 7.83896 -0.0190415 -15.2355 0.778502 -1.78003 4.08553 8.13353 -24.8871 0.0 0.0 0.0 11.2049 -27.1484 9.62978 -28.8264 0.0872239 4.37651 19.6894 28.2754 -2.88539 -13.1638 0.0 0.0 -0.0 0.0 -0.0 13.8777 15.7595 0.448037 -43.2579 0.686936 -6.44823 -18.4996 22.6522 -3.25554 39.8138 -0.0 -0.0 0.0 0.0 0.0 
3270.14 776.905 -423.859 169.437 -43.0092 174.797 -0.405106 -0.226164 -3.19253 -0.399437 -0.022663 -3.20045 -0.395035 0.672749 -3.12909 -0.408657 0.170389 -3.19599 -15.8862 6.8724 5.6276 -15.8877 9.91779 7.6651 -0.0 0.0 -0.0 9.96814 18.2951 17.6853 -3.68855 -16.3596 59.4203 2.4542 -50.5534 1.15901 -46.5291 -3.67074 4.48917 -3.1744 22.4883 -9.45909 -0.0 0.0 -0.0 0.898673 16.1506 -0.0165641 -18.5321 27.211 -65.3541 0.312643 8.80389 -0.0240673 -13.9614 0.695491 -1.63967 4.13293 8.47903 -25.0749 0.0 0.0 0.0 11.0529 -24.6196 8.5602 -27.2831 0.138503 4.14521 19.9014 30.1221 -2.95216 -12.2905 0.0 0.0 -0.0 0.0 -0.0 15.5451 12.2753 0.761752 -41.9525 0.595632 -6.26942 -21.3343 21.9024 -3.72719 39.6191 -0.0 -0.0 0.0 0.0 0.0 
3275.49 781.284 -426.156 172.043 -42.6069 175.209 -0.194067 0.0113857 -2.85341 -0.189559 0.192858 -2.84692 -0.19722 0.797024 -2.73995 -0.20752 0.354481 -2.83135 -16.3228 7.52813 4.57758 -16.4021 11.8305 6.96547 -0.0 0.0 -0.0 10.0459 18.5121 17.7792 -3.08212 -14.6185 59.6126 2.39498 -49.8656 1.11351 -45.0656 -3.50527 4.40028 -2.82183 18.6868 -9.44752 -0.0 0.0 -0.0 1.51084 14.3963 -1.50017 -18.6156 26.2385 -63.6574 0.337974 9.50463 -0.0280972 -13.3911 0.659354 -1.57626 3.8487 7.29954 -23.5269 0.0 0.0 0.0 12.4278 -22.9442 10.2234 -24.9584 0.20393 3.79447 19.1037 30.7283 -2.85559 -13.0175 0.0 0.0 -0.0 0.0 -0.0 17.4082 1.91205 5.71522 -21.7208 -0.271223 -3.30227 -17.8028 27.2881 -3.30583 32.9879 -0.0 -0.0 0.0 0.0 0.0 
3275.49 779.475 -424.463 174.722 -43.2702 176.667 0.28084 0.0119181 -2.55644 0.284459 0.174513 -2.55051 0.277831 0.695233 -2.46018 0.269508 0.2981 -2.53904 -14.8548 7.25072 3.36924 -14.9409 11.8584 5.57639 -0.0 0.0 -0.0 10.0243 18.8503 17.6886 -3.68726 -15.1817 58.8997 2.35831 -49.4296 1.08556 -47.4084 -3.77122 4.54054 -3.39268 15.8534 -14.5874 -0.0 0.0 -0.0 2.10326 14.1522 -2.77624 -18.6197 25.5039 -63.4485 0.351353 9.87361 -0.030349 -13.2743 0.652034 -1.56323 3.7253 7.02975 -22.746 0.0 0.0 0.0 14.1477 -21.8877 10.0572 -23.7376 0.232571 3.60932 17.0666 30.2164 -2.56099 -13.2777 0.0 0.0 -0.0 0.0 -0.0 17.8855 -4.35601 3.08807 -13.3426 -0.315539 -2.01867 -19.6781 23.4915 -3.49581 29.8895 -0.0 -0.0 0.0 0.0 0.0 
3277.51 779.215 -420.497 176.553 -43.5372 177.29 0.875278 -0.133635 -2.16524 0.877886 0.00438265 -2.16936 0.878302 0.42788 -2.12677 0.872 0.086709 -2.16763 -14.0549 7.71108 3.76643 -14.1314 12.4226 6.01311 -0.0 0.0 -0.0 9.53268 19.9238 16.7222 -4.23288 -15.1228 59.1412 2.44672 -50.4676 1.15324 -46.1595 -3.62874 4.46712 -3.55396 14.8847 -16.1859 -0.0 0.0 -0.0 2.66637 12.6897 -4.09904 -18.3823 24.9443 -62.8182 0.341094 9.59075 -0.0286148 -12.8071 0.623009 -1.51096 3.75127 6.70209 -23.0851 0.0 0.0 0.0 15.7406 -19.5805 10.2156 -24.0833 0.224862 3.6618 15.7873 30.5285 -2.38548 -12.628 0.0 0.0 -0.0 0.0 -0.0 17.9636 -9.58231 3.81724 -9.9325 -0.279803 -1.49674 -20.5081 24.0617 -3.66694 27.0901 -0.0 -0.0 0.0 0.0 0.0 
3281.29 778.345 -414.688 178.614 -43.8362 178.513 1.42698 -0.104866 -1.9168 1.42902 0.0172941 -1.91959 1.42861 0.373668 -1.88296 1.42366 0.0716577 -1.91833 -13.0044 9.03986 2.98699 -13.1329 15.3329 5.56669 -0.0 0.0 -0.0 9.06137 19.8926 15.9776 -6.42291 -15.0668 58.7038 2.58186 -51.9704 1.2586 -45.5167 -3.55604 4.42813 -3.12199 11.4246 -15.3057 -0.0 0.0 -0.0 2.82255 13.697 -4.33668 -18.4011 24.2353 -64.1356 0.411128 11.5117 -0.0414409 -11.5486 0.546961 -1.36901 3.53512 7.28304 -21.2483 0.0 0.0 0.0 16.9566 -13.8916 8.88919 -25.2719 0.195938 3.84191 15.6412 28.4301 -2.33001 -13.2576 0.0 0.0 -0.0 0.0 -0.0 18.9026 -13.3517 4.11914 -8.71297 -0.25949 -1.31071 -21.4065 22.0042 -3.74375 25.6608 -0.0 -0.0 0.0 0.0 0.0 
3280.24 779.244 -410.746 178.974 -44.6103 178.744 1.28253 -0.0186591 -1.76527 1.28426 0.0936896 -1.76288 1.28153 0.424032 -1.7137 1.27746 0.148107 -1.75915 -12.6901 9.34911 3.73929 -12.7978 15.4155 6.3306 -0.0 0.0 -0.0 9.94918 19.8681 17.3986 -6.58712 -14.5561 57.3979 2.44515 -50.4495 1.15203 -45.6181 -3.56748 4.43434 -3.15247 11.4268 -15.5061 -0.0 0.0 -0.0 3.36295 14.4827 -5.40905 -18.3714 24.867 -64.8654 0.376419 10.5627 -0.0347958 -12.3748 0.596533 -1.46238 3.3955 7.05423 -20.3442 0.0 0.0 0.0 16.7971 -13.7181 8.5331 -24.7178 0.209886 3.75803 14.9935 28.7831 -2.24397 -13.4643 0.0 0.0 -0.0 0.0 -0.0 16.9995 -13.9033 3.65959 -6.29333 -0.207486 -0.943071 -20.9475 25.0225 -3.78706 26.1291 -0.0 -0.0 0.0 0.0 0.0 
3284.45 779.55 -398.629 178.647 -44.9083 178.595 1.31879 -0.065924 -1.6712 1.32035 0.0405372 -1.67201 1.31931 0.353605 -1.6347 1.3156 0.0910344 -1.67002 -11.5626 9.59411 4.88571 -11.608 15.0015 7.34238 -0.0 0.0 -0.0 10.0584 20.9968 17.3792 -7.9344 -14.4572 56.1063 2.44341 -50.4294 1.15068 -44.7921 -3.47461 4.3832 -2.78422 9.50092 -14.0957 -0.0 0.0 -0.0 3.60759 16.5967 -5.74388 -18.0684 23.3108 -67.0315 0.322891 9.08773 -0.0256609 -12.6927 0.615965 -1.49812 3.47624 7.17877 -20.8699 0.0 0.0 0.0 14.6087 -14.5939 8.25438 -23.8458 0.230193 3.62575 18.5116 29.0968 -2.74072 -13.0029 0.0 0.0 -0.0 0.0 -0.0 16.4188 -15.3906 3.23096 -7.59839 -0.237464 -1.1411 -20.7778 19.4499 -3.54339 28.5332 -0.0 -0.0 0.0 0.0 0.0 
3284.51 780.304 -386.68 179.018 -44.8428 178.761 1.18059 -0.0589954 -1.54318 1.18191 0.0393088 -1.54381 1.18103 0.331968 -1.50821 1.17786 0.089637 -1.5417 -9.91261 11.0461 6.13689 -9.90079 16.6563 8.71282 -0.0 0.0 -0.0 10.0547 21.3701 17.3071 -9.14354 -14.4782 55.2777 2.33694 -49.1718 1.06936 -43.1952 -3.2972 4.28058 -2.52292 6.74411 -13.7648 -0.0 0.0 -0.0 4.47303 17.8878 -7.48415 -17.4826 22.0352 -67.832 0.314711 8.86121 -0.0243848 -12.7744 0.62099 -1.50729 3.32622 6.13389 -20.255 0.0 0.0 0.0 14.3211 -13.5966 7.28041 -25.365 0.193514 3.856 20.3458 27.1832 -2.95251 -13.6845 0.0 0.0 -0.0 0.0 -0.0 16.4504 -16.9998 3.04051 -8.56188 -0.256697 -1.28769 -19.4882 17.0952 -3.25378 30.12 -0.0 -0.0 0.0 0.0 0.0 
3285.45 780.72 -381.322 179.406 -47.1364 179.183 1.22481 -0.301044 -1.521 1.22607 -0.20366 -1.53707 1.23182 0.0906879 -1.54785 1.22851 -0.154874 -1.54275 -9.04007 11.3658 6.04302 -9.01248 17.165 8.58339 -0.0 0.0 -0.0 9.97886 19.7201 17.4711 -10.6996 -14.6342 55.0508 2.32856 -49.0701 1.06302 -39.6686 -2.91599 4.03676 -2.14958 6.19776 -11.5347 -0.0 0.0 -0.0 3.80648 19.717 -5.88744 -17.0341 21.1888 -70.4324 0.402202 11.2682 -0.0396781 -12.8506 0.625688 -1.51583 3.25059 5.6569 -19.9212 0.0 0.0 0.0 12.9143 -12.0056 6.23278 -22.2368 0.262363 3.38095 18.4387 29.2977 -2.73454 -13.9677 0.0 0.0 -0.0 0.0 -0.0 16.9824 -16.2236 3.15501 -9.85016 -0.278556 -1.48417 -18.1551 12.2191 -2.92013 34.0631 -0.0 -0.0 0.0 0.0 0.0 
3281.65 780.904 -377.951 -179.932 -49.1674 -179.643 1.08318 -0.304519 -1.59608 1.08458 -0.202353 -1.61222 1.09063 0.110183 -1.62113 1.08699 -0.147192 -1.61819 -7.82749 11.9862 4.54705 -7.81546 19.1623 7.0925 -0.0 0.0 -0.0 9.72928 15.7597 17.6572 -12.7457 -16.4202 55.3405 2.39646 -49.883 1.11464 -37.7655 -2.71672 3.8956 -1.57104 5.55173 -7.99738 -0.0 0.0 -0.0 3.5071 20.7597 -5.14386 -17.1203 20.554 -71.5307 0.505828 14.0673 -0.0624098 -13.5004 0.666228 -1.58843 3.2534 4.07931 -20.623 0.0 0.0 0.0 12.129 -13.8865 5.48292 -20.5448 0.288764 3.12267 20.4771 29.8366 -3.02423 -13.7991 0.0 0.0 -0.0 0.0 -0.0 18.4093 -14.6217 3.26066 -12.3139 -0.308032 -1.86102 -16.4627 10.1596 -2.61114 36.4363 -0.0 -0.0 0.0 0.0 0.0 
